<svg width="540" height="160" viewBox="0 0 540 160" fill="none" xmlns="http://www.w3.org/2000/svg">
<g clip-path="url(#clip0_1_2)">
<path d="M319.09 53.1732C290.089 72.7678 290.089 72.7678 251.46 15.5946L232.402 28.4711C283.908 104.702 283.908 104.702 331.967 72.231L319.09 53.1732Z" fill="url(#paint0_linear_1_2)"/>
<path d="M169.876 98.4747C208.82 72.162 208.82 72.162 247.45 129.335L266.508 116.459C215.002 40.2278 214.873 40.3149 157.055 79.3798L169.876 98.4747Z" fill="url(#paint1_linear_1_2)"/>
<rect x="409" y="163" width="25" height="24" transform="rotate(-180 409 163)" fill="#37448A"/>
<rect x="432" y="147" width="25" height="24" transform="rotate(-180 432 147)" fill="#65D7DD"/>
<path d="M54.1982 50.5283C56.5908 50.5283 58.915 50.9385 61.1709 51.7588C63.4951 52.5791 65.7168 53.7754 67.8359 55.3476C68.1777 55.6894 68.5537 56.0312 68.9639 56.373C69.3057 56.0312 69.6816 55.6894 70.0918 55.3476C72.2109 53.7754 74.3984 52.5791 76.6543 51.7588C78.9785 50.9385 81.3027 50.5283 83.627 50.5283C86.0195 50.5283 88.3438 50.9385 90.5996 51.7588C92.9238 52.5791 95.1113 53.8096 97.1621 55.4502C99.2812 57.0225 101.127 59.1416 102.699 61.8076C104.34 64.4736 105.16 67.6523 105.16 71.3437V108.36C104.75 112.462 102.494 114.684 98.3926 115.025C96.4785 115.025 94.8037 114.41 93.3682 113.18C92.001 111.881 91.3174 110.274 91.3174 108.36V72.1641C91.3174 70.5234 91.0098 69.1562 90.3945 68.0625C89.7793 66.9004 89.0957 66.0117 88.3438 65.3965C87.5918 64.7129 86.8057 64.2344 85.9854 63.9609C85.165 63.6191 84.3447 63.4482 83.5244 63.4482C82.7041 63.4482 81.8838 63.6191 81.0635 63.9609C80.3115 64.2344 79.5596 64.7129 78.8076 65.3965C78.0557 66.0117 77.3721 66.9004 76.7568 68.0625C76.1416 69.1562 75.7998 70.5234 75.7314 72.1641V108.36C75.3213 112.462 73.0654 114.684 68.9639 115.025C67.0498 115.025 65.375 114.41 63.9395 113.18C62.5723 111.881 61.8887 110.274 61.8887 108.36V72.1641C61.8887 70.5234 61.5811 69.1562 60.9658 68.0625C60.3506 66.9004 59.667 66.0117 58.915 65.3965C58.1631 64.7129 57.377 64.2344 56.5566 63.9609C55.7363 63.6191 54.916 63.4482 54.0957 63.4482C53.2754 63.4482 52.4551 63.6191 51.6348 63.9609C50.8828 64.2344 50.1309 64.7129 49.3789 65.3965C48.627 66.0117 47.9434 66.9004 47.3281 68.0625C46.7129 69.1562 46.3711 70.5234 46.3027 72.1641V108.36C45.9609 112.462 43.7393 114.684 39.6377 115.025C37.7236 115.025 36.0488 114.41 34.6133 113.18C33.2461 111.881 32.5625 110.274 32.5625 108.36V71.3437C32.6992 67.6523 33.5537 64.4736 35.126 61.8076C36.6982 59.1416 38.5439 57.0225 40.6631 55.4502C42.7822 53.8096 44.9697 52.5791 47.2256 51.7588C49.5498 50.9385 51.874 50.5283 54.1982 50.5283ZM139.306 113.795C133.29 113.59 128.744 112.188 125.668 109.591C122.592 106.925 120.37 103.951 119.003 100.67C117.636 97.3203 116.952 93.9365 116.952 90.5185C116.952 86.9639 117.602 83.5459 118.9 80.2646C120.268 76.915 122.489 73.9414 125.565 71.3437C128.71 68.6777 132.675 67.3105 137.46 67.2422H170.683C175.468 67.3105 179.398 68.6777 182.475 71.3437C185.619 73.9414 187.841 76.915 189.14 80.2646C190.507 83.5459 191.19 86.9639 191.19 90.5185C191.19 93.9365 190.507 97.3203 189.14 100.67C187.772 103.951 185.551 106.925 182.475 109.591C179.398 112.188 174.853 113.59 168.837 113.795H139.306ZM137.05 80.9824C135.751 80.9824 134.623 81.5293 133.666 82.623C132.709 83.6484 131.991 84.8789 131.513 86.3144C131.103 87.6816 130.897 89.0488 130.897 90.416C130.897 91.8516 131.103 93.2871 131.513 94.7226C131.991 96.0898 132.709 97.3203 133.666 98.4141C134.623 99.4394 135.751 99.9863 137.05 100.055H171.093C172.392 99.9863 173.52 99.4394 174.477 98.4141C175.434 97.3203 176.117 96.0898 176.527 94.7226C177.006 93.2871 177.245 91.8516 177.245 90.416C177.245 89.0488 177.006 87.6816 176.527 86.3144C176.117 84.8789 175.434 83.6484 174.477 82.623C173.52 81.5293 172.392 80.9824 171.093 80.9824H137.05ZM205.136 80.1621C206.435 76.8809 208.622 73.9414 211.698 71.3437C214.843 68.6777 218.808 67.3105 223.593 67.2422H262.147C264.062 67.2422 265.668 67.9258 266.967 69.293C268.334 70.5918 269.018 72.1982 269.018 74.1123C269.018 76.0264 268.334 77.667 266.967 79.0342C265.668 80.333 264.062 80.9824 262.147 80.9824H223.183C221.884 80.9824 220.756 81.5293 219.799 82.623C218.842 83.6484 218.09 84.8789 217.543 86.3144C217.064 87.75 216.825 89.1172 216.825 90.416V108.36C216.415 112.462 214.159 114.684 210.058 115.025C208.144 115.025 206.469 114.41 205.033 113.18C203.666 111.881 202.982 110.274 202.982 108.36V90.5185H203.085C203.085 86.9639 203.769 83.5117 205.136 80.1621ZM336.693 83.6484C336.693 81.9394 335.805 81.0508 334.027 80.9824H298.139C296.84 81.0508 295.712 81.6318 294.755 82.7256C293.798 83.751 293.08 84.9814 292.602 86.417C292.191 87.7842 291.986 89.1855 291.986 90.6211C291.986 91.9883 292.191 93.3896 292.602 94.8252C293.08 96.1924 293.798 97.4228 294.755 98.5166C295.712 99.542 296.84 100.055 298.139 100.055H324.389C326.303 100.055 327.909 100.738 329.208 102.105C330.575 103.404 331.259 105.011 331.259 106.925C331.259 108.839 330.575 110.445 329.208 111.744C327.909 113.111 326.303 113.795 324.389 113.795H298.549C293.764 113.727 289.799 112.394 286.654 109.796C283.578 107.13 281.356 104.156 279.989 100.875C278.69 97.5254 278.041 94.0732 278.041 90.5185C278.041 87.1006 278.725 83.751 280.092 80.4697C281.459 77.1201 283.681 74.1465 286.757 71.5488C289.833 68.8828 294.379 67.4473 300.395 67.2422H343.461C345.375 67.2422 347.016 67.8916 348.383 69.1904C349.75 70.4209 350.468 71.9932 350.536 73.9072V106.31C350.536 111.778 349.784 116.939 348.28 121.793C346.913 126.1 344.657 129.723 341.513 132.662C338.437 135.67 334.506 137.311 329.721 137.584H294.242C292.396 137.516 290.824 136.832 289.525 135.533C288.295 134.303 287.646 132.765 287.577 130.919C287.577 129.005 288.192 127.364 289.423 125.997C290.722 124.63 292.328 123.912 294.242 123.844H326.234C328.832 123.707 330.985 122.716 332.694 120.87C334.403 119.024 335.497 116.871 335.976 114.41C336.454 111.949 336.693 108.771 336.693 104.874V83.6484ZM385.399 113.795C379.384 113.59 374.838 112.188 371.762 109.591C368.686 106.925 366.464 103.951 365.097 100.67C363.729 97.3203 363.046 93.9365 363.046 90.5185C363.046 86.9639 363.695 83.5459 364.994 80.2646C366.361 76.915 368.583 73.9414 371.659 71.3437C374.804 68.6777 378.769 67.3105 383.554 67.2422H422.519C424.433 67.2422 426.039 67.8916 427.338 69.1904C428.705 70.4209 429.389 71.9248 429.389 73.7021C429.389 75.5478 428.705 77.1201 427.338 78.4189C426.039 79.6494 424.433 80.2646 422.519 80.2646H384.169C382.665 80.2646 381.332 80.7773 380.17 81.8027C379.076 82.8281 378.256 84.1611 377.709 85.8018C377.23 87.4424 376.991 89.0488 376.991 90.6211C376.991 92.3301 377.23 94.0049 377.709 95.6455C378.256 97.2861 379.076 98.6191 380.17 99.6445C381.332 100.602 382.665 101.114 384.169 101.183H422.519C424.433 101.183 426.039 101.798 427.338 103.028C428.705 104.259 429.389 105.729 429.389 107.437C429.389 109.215 428.705 110.719 427.338 111.949C426.039 113.18 424.433 113.795 422.519 113.795H385.399ZM428.158 90.3135C428.158 91.6123 427.577 92.7402 426.415 93.6973C425.39 94.5859 424.091 95.0303 422.519 95.0303H388.988C387.416 95.0303 386.083 94.5859 384.989 93.6973C383.896 92.7402 383.349 91.6123 383.349 90.3135C383.349 89.083 383.896 87.9893 384.989 87.0322C386.083 86.1435 387.416 85.6992 388.988 85.6992H422.519C424.091 85.6992 425.424 86.1777 426.518 87.1348C427.611 88.0234 428.158 89.083 428.158 90.3135ZM473.891 65.7041C477.445 65.7041 480.932 66.1143 484.35 66.9346C487.836 67.7549 491.151 68.9853 494.296 70.626C497.44 72.1982 500.209 74.3174 502.602 76.9834C505.062 79.6494 506.396 82.8281 506.601 86.5195V90.8262V108.36C506.19 112.462 503.935 114.684 499.833 115.025C497.919 115.025 496.244 114.41 494.809 113.18C493.441 111.881 492.758 110.274 492.758 108.36V103.849V89.6982C492.621 87.5791 491.801 85.8359 490.297 84.4687C488.861 83.0332 487.221 81.9053 485.375 81.085C483.598 80.2646 481.718 79.6494 479.735 79.2393C477.821 78.8291 475.873 78.624 473.891 78.624C471.908 78.624 469.926 78.8291 467.943 79.2393C466.029 79.6494 464.149 80.2646 462.304 81.085C460.526 81.9053 458.886 83.0332 457.382 84.4687C455.946 85.8359 455.16 87.5791 455.023 89.6982V103.849V108.36C454.682 112.462 452.46 114.684 448.358 115.025C446.444 115.025 444.77 114.41 443.334 113.18C441.967 111.881 441.283 110.274 441.283 108.36V90.8262V86.5195C441.488 82.8281 442.787 79.6494 445.18 76.9834C447.572 74.3174 450.341 72.1982 453.485 70.626C456.63 68.9853 459.911 67.7549 463.329 66.9346C466.815 66.1143 470.336 65.7041 473.891 65.7041Z" fill="white"/>
</g>
<defs>
<linearGradient id="paint0_linear_1_2" x1="222.983" y1="44.0028" x2="323.1" y2="54.4698" gradientUnits="userSpaceOnUse">
<stop stop-color="#37448A"/>
<stop offset="1" stop-color="#65D7DD"/>
</linearGradient>
<linearGradient id="paint1_linear_1_2" x1="183.483" y1="118.494" x2="238.607" y2="148.476" gradientUnits="userSpaceOnUse">
<stop stop-color="#37448A"/>
<stop offset="1" stop-color="#65D7DD"/>
</linearGradient>
<clipPath id="clip0_1_2">
<rect width="540" height="160" fill="white"/>
</clipPath>
</defs>
</svg>
